<?xml version="1.0" encoding="UTF-8"?>
<svg width="1200pt" height="1200pt" version="1.1" viewBox="0 0 1200 1200" xmlns="http://www.w3.org/2000/svg">
 <path d="m1129.2 162h-1058.4c-22.801 0-40.801 18-40.801 40.801v794.4c0 22.801 18 40.801 40.801 40.801h1058.4c22.801 0 40.801-18 40.801-40.801v-794.4c0-22.801-18-40.801-40.801-40.801zm-754.8 696c-28.801 0-51.602-22.801-51.602-51.602 0-28.801 22.801-51.602 51.602-51.602 28.801 0 51.602 22.801 51.602 51.602 0 28.801-24 51.602-51.602 51.602zm128.4-280.8c-20.398 28.801-42 43.199-57.602 54-18 13.199-26.398 19.199-28.801 49.199-1.1992 10.801-10.801 20.398-21.602 20.398h-39.602c-6 0-12-2.3984-16.801-7.1992-4.8008-4.8008-6-10.801-6-16.801 4.8008-67.199 31.199-90 63.602-114 13.199-9.6016 25.199-18 38.398-36s14.398-43.199 3.6016-63.602c-7.1992-14.398-26.398-38.398-70.801-38.398-57.602 0-76.801 36-81.602 66-2.3984 10.801-10.801 18-21.602 18h-39.602c-6 0-13.199-2.3984-16.801-7.1992-3.6016-4.8008-6-10.801-4.8008-16.801 9.6016-69.602 58.801-142.8 165.6-142.8 64.801 0 118.8 31.199 145.2 84 26.41 50.402 21.609 108-10.789 151.2zm434.4 271.2h-252c-22.801 0-40.801-18-40.801-40.801 0-22.801 18-40.801 40.801-40.801h253.2c22.801 0 40.801 18 40.801 40.801 0 21.602-19.199 40.801-42 40.801zm0-207.6h-252c-22.801 0-40.801-18-40.801-40.801s18-40.801 40.801-40.801h253.2c22.801 0 40.801 18 40.801 40.801s-19.199 40.801-42 40.801zm0-206.4h-252c-22.801 0-40.801-18-40.801-40.801 0-22.801 18-40.801 40.801-40.801h253.2c22.801 0 40.801 18 40.801 40.801 0 22.801-19.199 40.801-42 40.801z"/>
</svg>
