<svg
   width="27.0585mm"
   height="24.0284985mm"
   viewBox="0 0 18.039 16.018999"
   version="1.1"
   id="svg1"
   xmlns="http://www.w3.org/2000/svg">
  <g
     id="layer1">
    <path
       fill-rule="evenodd"
       clip-rule="evenodd"
       fill="#ffffff"
       stroke="#000000"
       stroke-width="0.26461"
       d="m 6.742655,0.132305 h 10.6299 c 0.3048,0 0.53366,0.24765 0.53366,0.5334 0,4.89585 0,9.7917 0,14.68782 0,0.28548 -0.2286,0.5334 -0.53366,0.5334 H 0.665705 c -0.3048,0 -0.5334,-0.24792 -0.5334,-0.5334 v -6.55347 c 0,-0.3048 0.228336,-0.5334 0.5334,-0.5334 h 4.51459 c 0.78131,0 1.02896,-0.28575 1.02896,-1.02896 v -6.57225 c 0,-0.28549 0.24791,-0.53314 0.5334,-0.53314 z"
       id="path131" />
    <polygon
       fill-rule="evenodd"
       clip-rule="evenodd"
       fill="#58585a"
       points="421.34,138.309 421.34,140.108 417.956,138.021 421.34,135.933 421.34,137.66 424.436,137.66 424.436,135.933 425.012,135.933 425.012,138.309 "
       id="polygon131"
       transform="matrix(0.26458333,0,0,0.26458333,-109.70894,-26.422335)" />
    <polygon
       fill="#58585a"
       points="428.252,138.092 429.908,138.092 429.908,137.444 428.252,137.444 428.252,136.292 430.053,136.292 430.053,135.572 427.388,135.572 427.388,140.108 430.053,140.108 430.053,139.388 428.252,139.388 "
       id="polygon132"
       transform="matrix(0.26458333,0,0,0.26458333,-109.70894,-26.422335)" />
    <path
       fill="#58585a"
       d="m 4.304255,10.647905 h 0.2286 v -0.43815 c 0,-0.1143 0.0381,-0.28548 0.20955,-0.28548 0.13335,0 0.13335,0.15213 0.13335,0.24765 v 0.47625 h 0.24765 v -0.55245 c 0,-0.20955 -0.095,-0.36195 -0.30454,-0.36195 -0.13335,0 -0.2286,0.0572 -0.28575,0.1524 h -0.019 v -0.11457 h -0.20955 v 0.8763 z"
       id="path132"
       style="stroke-width:0.264583" />
    <path
       fill="#58585a"
       d="m 5.428205,10.381475 c 0,0.17145 0.095,0.28548 0.28575,0.28548 0.0572,0 0.11456,0 0.17119,-0.0188 l -0.0188,-0.17119 c -0.019,0 -0.0574,0.0188 -0.0952,0.0188 -0.095,0 -0.1143,-0.0762 -0.1143,-0.15214 v -0.4191 h 0.20955 v -0.15266 h -0.20955 v -0.2667 l -0.2286,0.0762 v 0.1905 h -0.17145 v 0.15266 h 0.17145 z"
       id="path133"
       style="stroke-width:0.264583" />
    <path
       fill="#58585a"
       d="m 6.380965,9.904955 h 0.0188 c 0.11456,0 0.17119,0.0953 0.17119,0.20955 h -0.19024 v 0.17145 h 0.4191 c 0,-0.32385 -0.0952,-0.5334 -0.4191,-0.55245 v 0.17145 z m 0,0.762 v -0.17118 c 0.0188,0 0.0381,0 0.0569,0 0.11456,0 0.20981,-0.0384 0.28601,-0.0762 v 0.17145 c -0.0762,0.0572 -0.17145,0.0759 -0.3048,0.0759 -2.6e-4,0 -0.0193,0 -0.0381,0 z m -0.19076,-0.55245 c 0,-0.1143 0.0762,-0.19023 0.19076,-0.20955 v -0.17118 0 c -0.28575,0 -0.4191,0.2286 -0.4191,0.47625 0,0.26696 0.15214,0.43815 0.4191,0.4572 v -0.17119 c -0.11456,-0.0188 -0.19076,-0.095 -0.19076,-0.20955 h 0.19076 v -0.17145 h -0.19076 z"
       id="path134"
       style="stroke-width:0.264583" />
    <path
       fill="#58585a"
       d="m 6.990045,10.647905 h 0.2286 v -0.32411 c 0,-0.13335 0,-0.36169 0.19076,-0.36169 0.0381,0 0.0762,0 0.095,0.0188 v -0.22834 c -0.0188,-0.019 -0.0572,-0.019 -0.0762,-0.019 -0.13335,0 -0.22834,0.1524 -0.22834,0.2286 h -0.0191 v -0.19076 h -0.19076 z"
       id="path135"
       style="stroke-width:0.264583" />
  </g>
</svg>
